<svg width="1000" height="1000" viewBox="0 0 1000 1000" fill="none" xmlns="http://www.w3.org/2000/svg">
<path d="M820.3 497.8L785.9 451.7C785.9 451.7 806.7 393.3 812.2 378.3L574.8 59.6L625.5 236.3L452.3 3.70001L509.9 204.6C403 179.3 287 215.4 213.9 304.6L218.9 311.3C250.1 298.4 283.1 295.1 317 302.1C156.4 363.6 85.3999 546.1 152.7 697.3H161.2C165.7 655.9 180.8 627.3 210.3 604.1C223.1 748.1 341 868.8 500 872.5V853.4C276.8 778 278.7 527.4 412 457.8C367.5 521.1 372.5 583.3 403.4 645.9L361.6 660.6L367.4 675.3C367.4 675.3 446.5 671.9 468.6 670.3C481.4 680 496.3 707.3 500.7 715.7L441 753.6L450.3 766C450.3 766 543.4 741.8 568 734.2C603.2 763.6 631.2 799.6 659.8 843.3C682.4 830.1 703.2 814.1 721.7 795.7C680.3 732.3 632 693.5 577.2 667.1L556.5 680.3C538.2 655.3 516.9 633.2 493.4 614.4L466.9 623.7C404.6 549 446.8 441.7 507.8 448.8C508 448.8 508.2 448.9 508.5 449V449.2C510.4 474 490.2 483.9 470.2 498.4L481.2 513.1C501.3 512.3 523.3 513.6 543.8 517.3L505.2 545.3L515.9 559.6C616.8 538.4 724.4 591.4 764 694.9L781.1 703.3L798.6 659.4L841.4 633.1L872.9 523.4L820.3 497.8ZM756 466.3L689.6 433.7C675.5 426.8 667.3 411.7 669.1 396L674.2 353.2L757.3 464.8C756.7 465.5 756.3 465.9 756 466.3Z" fill="black"/>
</svg>
